<?xml version="1.0" encoding="utf-8"?>
<!-- Generator: Adobe Illustrator 16.0.0, SVG Export Plug-In . SVG Version: 6.00 Build 0)  -->
<!DOCTYPE svg PUBLIC "-//W3C//DTD SVG 1.0//EN" "http://www.w3.org/TR/2001/REC-SVG-20010904/DTD/svg10.dtd">
<svg version="1.0" id="Layer_1" xmlns="http://www.w3.org/2000/svg" xmlns:xlink="http://www.w3.org/1999/xlink" x="0px" y="0px"
	 width="120px" height="120px" viewBox="0 0 120 120" enable-background="new 0 0 120 120" xml:space="preserve">
<path fill="#8DC63F" d="M60.388,14.08c17.129,0,31.065,14.104,31.065,31.438c0,10.291-4.85,19.666-12.973,25.074l-0.104,0.068
	l-0.094,0.08c-3.407,2.934-5.322,6.217-5.813,9.994H66.88h-3.489H56.32h-3.489h-5.276c-0.522-3.935-2.633-7.248-6.431-10.101
	c-8.29-5.971-12.981-15.866-12.549-26.496C29.03,28.03,42.926,14.55,59.557,14.08H60.388 M60.388,12.08c-0.279,0-0.56,0-0.858,0
	c-17.67,0.485-32.468,14.816-32.953,32.003c-0.467,11.456,4.777,21.979,13.379,28.175c3.825,2.873,5.729,6.166,5.729,10.477h7.147
	h3.489h7.072h3.489h7.464c0-4.311,1.902-7.604,5.243-10.477c8.603-5.729,13.864-15.767,13.864-26.74
	C93.453,27.175,78.619,12.08,60.388,12.08L60.388,12.08z M69.654,88.51c1.476,0,2.677,1.201,2.677,2.678
	c0,1.478-1.201,2.679-2.677,2.679H50.346c-1.476,0-2.677-1.201-2.677-2.679c0-1.477,1.201-2.678,2.677-2.678H69.654 M69.654,86.51
	H50.346c-2.583,0-4.677,2.094-4.677,4.678s2.094,4.679,4.677,4.679h19.308c2.584,0,4.678-2.095,4.678-4.679
	S72.236,86.51,69.654,86.51L69.654,86.51z M63.154,100.566c1.476,0,2.677,1.201,2.677,2.678c0,1.475-1.201,2.676-2.677,2.676h-6.309
	c-1.476,0-2.677-1.201-2.677-2.676c0-1.477,1.201-2.678,2.677-2.678H63.154 M63.154,98.566h-6.309c-2.583,0-4.677,2.094-4.677,4.678
	c0,2.582,2.094,4.676,4.677,4.676h6.309c2.582,0,4.677-2.094,4.677-4.676C67.831,100.66,65.736,98.566,63.154,98.566L63.154,98.566z
	 M56.204,36.128h-2v45.274h2V36.128z M65.371,51.674h-2v29.729h2V51.674z M40.814,48.691c2.315,0.175,6.411,0.9,9.216,3.729
	c2.811,2.833,3.2,6.656,3.168,8.779c-2.073-0.025-6.569-0.376-8.983-2.809C41.975,56.131,41.095,51.637,40.814,48.691
	 M39.495,46.639c-0.503,0-0.792,0.021-0.792,0.021s-0.001,9.011,4.092,13.138c2.967,2.991,8.07,3.403,10.654,3.403
	c0.98,0,1.599-0.061,1.599-0.061s1.302-7.19-3.598-12.128C47.495,47.022,41.61,46.639,39.495,46.639L39.495,46.639z M69.516,34.781
	c-0.178,2.383-0.912,6.424-3.729,9.216c-2.645,2.624-6.092,3.174-8.518,3.174c-0.09,0-0.176,0-0.261-0.002
	c0.024-2.348,0.421-6.619,2.809-8.987C62.076,35.942,66.566,35.061,69.516,34.781 M71.547,32.669c0,0-9.011-0.001-13.138,4.092
	c-4.126,4.093-3.343,12.253-3.343,12.253s0.866,0.156,2.203,0.156c2.516,0,6.702-0.555,9.926-3.754
	C72.134,40.521,71.547,32.669,71.547,32.669L71.547,32.669z M78.795,52.94c-0.177,2.383-0.911,6.424-3.729,9.216
	c-2.645,2.623-6.092,3.174-8.518,3.174c-0.09,0-0.176,0-0.261-0.002c0.022-2.348,0.421-6.62,2.81-8.988
	C71.355,54.101,75.848,53.22,78.795,52.94 M80.827,50.829c0,0-9.011-0.001-13.138,4.092c-4.127,4.093-3.344,12.253-3.344,12.253
	s0.866,0.156,2.203,0.156c2.516,0,6.701-0.555,9.926-3.754C81.414,58.68,80.827,50.829,80.827,50.829L80.827,50.829z"/>
</svg>
