<?xml version="1.0" encoding="utf-8"?>
<!-- Generator: Adobe Illustrator 16.0.0, SVG Export Plug-In . SVG Version: 6.00 Build 0)  -->
<!DOCTYPE svg PUBLIC "-//W3C//DTD SVG 1.0//EN" "http://www.w3.org/TR/2001/REC-SVG-20010904/DTD/svg10.dtd">
<svg version="1.0" id="Layer_1" xmlns="http://www.w3.org/2000/svg" xmlns:xlink="http://www.w3.org/1999/xlink" x="0px" y="0px"
	 width="120px" height="120px" viewBox="0 0 120 120" enable-background="new 0 0 120 120" xml:space="preserve">
<g>
	<path fill="#8DC63F" d="M77.412,23.621c0.537,0,1.039,0.207,1.414,0.581l16.972,16.972c0.779,0.78,0.779,2.048,0,2.828
		L51.249,88.55c-1.287,1.286-3.973,2.756-5.749,3.145l-21.163,4.638c-0.141,0.031-0.27,0.047-0.385,0.047
		c-0.179,0-0.266-0.038-0.28-0.049c-0.023-0.029-0.098-0.24-0.004-0.667L28.306,74.5c0.389-1.776,1.858-4.462,3.145-5.749
		l44.548-44.549C76.373,23.828,76.875,23.621,77.412,23.621 M77.412,21.621c-1.025,0-2.05,0.39-2.828,1.167L30.036,67.337
		c-1.556,1.556-3.214,4.586-3.685,6.735l-4.638,21.163c-0.408,1.864,0.569,3.144,2.238,3.144c0.255,0,0.527-0.03,0.813-0.093
		l21.163-4.638c2.149-0.471,5.18-2.129,6.735-3.685l44.549-44.548c1.556-1.556,1.556-4.101,0-5.656L80.24,22.788
		C79.462,22.011,78.438,21.621,77.412,21.621L77.412,21.621z"/>
	<path fill="#8DC63F" stroke="#000000" stroke-width="2" stroke-miterlimit="10" d="M39.949,82.879"/>
	<polygon fill="#8DC63F" points="30.482,95.665 22.085,97.915 24.335,89.518 	"/>
	<g>
		<line fill="#8DC63F" x1="28.856" y1="71.026" x2="49.066" y2="91.235"/>
		
			<rect x="24.671" y="80.131" transform="matrix(0.7071 0.7071 -0.7071 0.7071 68.7777 -3.7879)" fill="#8DC63F" width="28.581" height="2"/>
	</g>
	<g>
		
			<rect x="58.336" y="18.91" transform="matrix(0.7071 0.7071 -0.7071 0.7071 54.9421 -26.3978)" fill="#8DC63F" width="2" height="68.424"/>
	</g>
	<g>
		
			<rect x="65.676" y="26.14" transform="matrix(0.7071 0.7071 -0.7071 0.7071 62.2039 -29.4703)" fill="#8DC63F" width="2" height="68.424"/>
	</g>
</g>
</svg>
