<?xml version="1.0" encoding="utf-8"?>
<!-- Generator: Adobe Illustrator 16.0.0, SVG Export Plug-In . SVG Version: 6.00 Build 0)  -->
<!DOCTYPE svg PUBLIC "-//W3C//DTD SVG 1.0//EN" "http://www.w3.org/TR/2001/REC-SVG-20010904/DTD/svg10.dtd">
<svg version="1.0" id="Layer_1" xmlns="http://www.w3.org/2000/svg" xmlns:xlink="http://www.w3.org/1999/xlink" x="0px" y="0px"
	 width="120px" height="120px" viewBox="0 0 120 120" enable-background="new 0 0 120 120" xml:space="preserve">
<g>
	<g>
		<path fill="#8DC63F" d="M83.895,73.857v8.871H36.107v-8.871H83.895 M83.895,71.857H36.107c-1.1,0-2,0.899-2,2v8.871
			c0,1.1,0.9,2,2,2h47.786c1.101,0,2-0.9,2-2v-8.871C85.895,72.758,84.993,71.857,83.895,71.857L83.895,71.857z"/>
	</g>
	<g>
		<path fill="#8DC63F" d="M76.843,84.748l-5.336,20.816c-0.047,0.184-0.37,0.436-0.56,0.436H49.055c-0.188,0-0.513-0.252-0.56-0.436
			l-5.337-20.816H76.843 M77.421,82.748H42.58c-1.1,0-1.776,0.872-1.503,1.938l5.48,21.377c0.273,1.065,1.397,1.938,2.497,1.938
			h21.893c1.1,0,2.224-0.872,2.496-1.938l5.479-21.377C79.197,83.62,78.521,82.748,77.421,82.748L77.421,82.748z"/>
	</g>
	<g>
		<path fill="#8DC63F" d="M88.465,50.259v-24.1c0-3.54-2.913-6.436-6.473-6.436c-3.561,0-6.473,2.896-6.473,6.436V44.18h-8.74
			V18.436c0-3.54-2.913-6.436-6.473-6.436c-3.561,0-6.473,2.896-6.473,6.436v18.021h-9.388V23.586c0-3.54-2.913-6.438-6.473-6.438
			c-3.561,0-6.474,2.898-6.474,6.438v19.308c0,3.539,2.913,6.437,6.474,6.437h15.86v24.526h2V49.33v-2h-2h-15.86
			c-2.467,0-4.474-1.99-4.474-4.437V23.586c0-2.447,2.007-4.438,4.474-4.438c2.466,0,4.473,1.991,4.473,4.438v12.871v2h2h9.388h2v-2
			V18.436c0-2.446,2.007-4.436,4.473-4.436c2.465,0,4.473,1.989,4.473,4.436v25.745v2h2h8.74h2v-2V26.159
			c0-2.445,2.006-4.436,4.473-4.436c2.466,0,4.473,1.99,4.473,4.436v24.1v0.065l0.004,0.064c0.006,0.087,0.016,0.173,0.031,0.288
			c-0.033,2.419-2.027,4.377-4.475,4.377H66.779h-2v2v16.804h2V57.054h15.246c3.562,0,6.475-2.897,6.475-6.437
			C88.5,50.494,88.473,50.379,88.465,50.259z"/>
	</g>
</g>
</svg>
