<?xml version="1.0" encoding="utf-8"?>
<!-- Generator: Adobe Illustrator 16.0.0, SVG Export Plug-In . SVG Version: 6.00 Build 0)  -->
<!DOCTYPE svg PUBLIC "-//W3C//DTD SVG 1.1//EN" "http://www.w3.org/Graphics/SVG/1.1/DTD/svg11.dtd">
<svg version="1.1" id="Layer_1" xmlns="http://www.w3.org/2000/svg" xmlns:xlink="http://www.w3.org/1999/xlink" x="0px" y="0px"
	 width="165px" height="48px" viewBox="0 0 165 48" enable-background="new 0 0 165 48" xml:space="preserve">
<linearGradient id="SVGID_1_" gradientUnits="userSpaceOnUse" x1="24.771" y1="28.5449" x2="24.771" y2="9.7021" gradientTransform="matrix(1 0 0 -1 0 49)">
	<stop  offset="0" style="stop-color:#8DC63F"/>
	<stop  offset="1" style="stop-color:#009444"/>
</linearGradient>
<path fill="url(#SVGID_1_)" d="M43.316,6.412C30.799,7.156,27.808,18.655,27.808,24.094c0,5.875,2.86,10.777,5.923,13.631
	c4.031,3.752,8.431,4.543,8.431,4.543c-0.737-10.646-10.19-12.836-10.19-12.836c7.722,1.199,11.205,6.209,12.315,10.438
	c0.948,3.613,0.235,6.464,0.235,6.464C27.801,41.55,26.441,28.636,26.137,24.101C25.7,17.58,27.907,11.354,30.66,8.176
	c6.771-7.816,17.153-6.411,17.153-6.411c0.587,4.959-0.653,9.537-2.333,12.879c-5.02,9.991-15.343,11.688-15.343,11.688
	C45.138,20.603,43.316,6.412,43.316,6.412z M40.136,9.306c-9.901,4.22-9.825,15.267-9.825,15.267
	C32.662,14.696,40.136,9.306,40.136,9.306z M38.816,38.912c-1.255-6.883-8.27-8.42-8.27-8.42
	C36.47,33.398,38.816,38.912,38.816,38.912z M6.224,6.412c12.517,0.744,15.508,12.243,15.508,17.683
	c0,5.875-2.86,10.777-5.923,13.632c-4.031,3.752-8.431,4.541-8.431,4.541c0.737-10.645,10.19-12.834,10.19-12.834
	C9.846,30.631,6.362,35.641,5.252,39.869c-0.948,3.613-0.234,6.464-0.234,6.464c16.72-4.783,18.08-17.697,18.385-22.232
	c0.438-6.521-1.77-12.747-4.523-15.924C12.109,0.36,1.728,1.765,1.728,1.765C1.141,6.724,2.38,11.302,4.06,14.645
	c5.02,9.991,15.342,11.688,15.342,11.688C4.402,20.603,6.224,6.412,6.224,6.412z M19.229,24.572c0,0,0.076-11.047-9.825-15.267
	C9.404,9.306,16.878,14.696,19.229,24.572z M18.994,30.492c0,0-7.016,1.537-8.271,8.42C10.723,38.912,13.07,33.398,18.994,30.492z"
	/>
<path fill="#006EAA" d="M59.06,13.639c0,0,2.309-0.021,4.068-0.021c2.987,0,5.042,0.911,5.042,3.581
	c0,1.674-1.144,3.029-2.839,3.496v0.021c1.716,0.381,3.157,1.504,3.157,3.538c0,2.689-1.865,4.258-5.551,4.258
	c-1.652,0-3.877-0.042-3.877-0.042V13.639z M60.967,20.08h1.885c2.055,0,3.412-0.297,3.412-2.521c0-1.759-1.102-2.352-3.072-2.352
	c-1.017,0-2.225,0.021-2.225,0.021V20.08z M60.967,26.88c0,0,0.89,0.043,1.95,0.043c2.119,0,3.665-0.403,3.665-2.584
	c0-1.949-1.355-2.776-3.644-2.776h-1.97L60.967,26.88L60.967,26.88z"/>
<path fill="#006EAA" d="M71.495,20.44c0-0.848-0.445-0.975-1.271-0.975V18.3c0.339-0.148,0.657-0.212,1.039-0.212
	c0.89,0,1.716,0.466,1.906,1.525h0.042c0.254-0.953,0.932-1.737,2.246-1.737c0.53,0,0.975,0.232,1.081,0.423l-0.275,1.271h-1.101
	c-1.462,0-1.844,0.847-1.864,2.818v6.08h-1.802L71.495,20.44L71.495,20.44z"/>
<path fill="#006EAA" d="M82.152,28.788c-2.331,0-4.005-1.547-4.089-3.813c-0.063-1.632-0.063-2.014,0-3.327
	c0.106-2.246,1.695-3.771,4.089-3.771c2.374,0,3.961,1.525,4.067,3.771c0.063,1.313,0.063,1.822,0,3.327
	C86.113,27.241,84.482,28.788,82.152,28.788z M82.152,19.359c-1.356,0-2.246,0.933-2.289,2.331c-0.042,1.313-0.042,2.14,0,3.22
	c0.064,1.376,0.933,2.395,2.289,2.395c1.334,0,2.204-1.018,2.267-2.373c0.042-1.124,0.042-1.928,0-3.242
	C84.375,20.313,83.508,19.359,82.152,19.359z"/>
<path fill="#006EAA" d="M92.998,27.305c0.678,0,1.314-0.106,1.314-0.106l0.084,1.271c-0.571,0.233-1.483,0.318-2.014,0.318
	c-1.504,0-2.943-0.827-2.943-3.158v-6.165h-1.483v-1.271h1.483v-2.225l1.801-0.741v2.966h2.839v1.271H91.24v6.08
	C91.24,27.092,92.087,27.305,92.998,27.305z"/>
<path fill="#006EAA" d="M97.574,23.978v0.678c0,1.736,0.91,2.648,2.267,2.648c1.313,0,1.949-0.848,2.097-1.908l1.483,0.106
	c0.084,1.674-1.229,3.285-3.581,3.285c-2.499,0-3.982-1.547-4.046-3.813c-0.043-1.505-0.043-2.162,0-3.158
	c0.106-2.182,1.483-3.94,4.046-3.94c2.247,0,3.602,1.397,3.602,3.495c0,1.399-0.297,1.589-1.864,1.929
	C99.988,23.639,97.574,23.978,97.574,23.978z M97.574,22.813c0,0,1.525-0.191,2.986-0.508c0.932-0.212,1.082-0.403,1.082-0.975
	c0-1.208-0.658-1.97-1.802-1.97c-1.588,0-2.267,1.165-2.267,2.796V22.813z"/>
<path fill="#006EAA" d="M108.822,28.469l-4.703-14.83h2.076l3.729,12.647l3.602-12.647h2.057l-4.682,14.83H108.822z"/>
<path fill="#006EAA" d="M117.445,23.978v0.678c0,1.736,0.91,2.648,2.266,2.648c1.314,0,1.949-0.848,2.1-1.908l1.481,0.106
	c0.084,1.674-1.229,3.285-3.581,3.285c-2.5,0-3.982-1.547-4.046-3.813c-0.042-1.505-0.042-2.162,0-3.158
	c0.106-2.182,1.483-3.94,4.046-3.94c2.246,0,3.604,1.397,3.604,3.495c0,1.399-0.297,1.589-1.865,1.929
	C119.859,23.639,117.445,23.978,117.445,23.978z M117.445,22.813c0,0,1.525-0.191,2.986-0.508c0.934-0.212,1.08-0.403,1.08-0.975
	c0-1.208-0.656-1.97-1.8-1.97c-1.589,0-2.267,1.165-2.267,2.796V22.813L117.445,22.813z"/>
<path fill="#006EAA" d="M126.363,20.44c0-0.848-0.444-0.975-1.271-0.975V18.3c0.34-0.148,0.657-0.212,1.039-0.212
	c0.891,0,1.717,0.466,1.907,1.525h0.042c0.254-0.953,0.934-1.737,2.246-1.737c0.529,0,0.975,0.232,1.082,0.423l-0.275,1.271h-1.104
	c-1.461,0-1.842,0.847-1.864,2.818v6.08h-1.8V20.44H126.363z"/>
<path fill="#006EAA" d="M141.129,26.033c0,1.059,0.467,1.165,1.378,1.165v1.271c-0.552,0.255-2.522,0.509-2.966-1.271h-0.043
	c-0.529,0.891-1.566,1.59-3.114,1.59c-1.674,0-3.325-1.082-3.454-3.539c-0.063-1.229-0.063-2.309-0.021-3.474
	c0.106-2.882,1.864-3.898,3.666-3.898c1.207,0,2.225,0.571,2.753,1.589v-6.145l1.801-0.741V26.033L141.129,26.033z M139.328,22.135
	c0-1.843-1.038-2.775-2.457-2.775c-1.271,0-2.161,0.911-2.161,2.521c0,1.102-0.042,1.949,0.021,3.178
	c0.086,1.525,0.849,2.248,2.141,2.248c1.355,0,2.457-0.596,2.457-2.396V22.135z"/>
<path fill="#006EAA" d="M146.213,23.978v0.678c0,1.736,0.912,2.648,2.268,2.648c1.313,0,1.949-0.848,2.098-1.908l1.482,0.106
	c0.084,1.674-1.229,3.285-3.58,3.285c-2.5,0-3.983-1.547-4.047-3.813c-0.041-1.505-0.041-2.162,0-3.158
	c0.106-2.182,1.483-3.94,4.047-3.94c2.246,0,3.602,1.397,3.602,3.495c0,1.399-0.296,1.589-1.864,1.929
	C148.628,23.639,146.213,23.978,146.213,23.978z M146.213,22.813c0,0,1.527-0.191,2.988-0.508c0.933-0.212,1.081-0.403,1.081-0.975
	c0-1.208-0.657-1.97-1.802-1.97c-1.588,0-2.267,1.165-2.267,2.796L146.213,22.813L146.213,22.813z"/>
<path fill="#6D6E71" d="M97.063,36.686l-0.049,0.172c-0.02,0.072-0.041,0.121-0.066,0.143c-0.025,0.023-0.076,0.043-0.154,0.063
	c-0.037,0.012-0.063,0.021-0.075,0.027l0.069,0.057c-0.016,0.055-0.049,0.106-0.102,0.16c-0.054,0.002-0.093,0.012-0.115,0.021
	c-0.023,0.011-0.049,0.034-0.078,0.069l0.054,0.024l-0.123,0.099l-0.164,0.068l-0.069,0.053l-0.186,0.045
	c-0.016,0.002-0.074,0.032-0.17,0.092l-0.109,0.063l-0.043-0.013l-0.142,0.051l-0.265,0.065L95.109,38l-0.154-0.014l-0.092,0.048
	l-0.09-0.005l-0.063,0.023l-0.084-0.012c-0.062,0-0.123,0.012-0.187,0.037l-0.264,0.109l-0.064,0.025l-0.014,0.057l0.028,0.361
	l-0.028,0.064l0.047,0.314v0.024v0.038c-0.064,0.006-0.098,0.029-0.098,0.072v0.013l0.079,0.173l0.024,0.404l0.013,0.154
	c0,0.055-0.022,0.09-0.065,0.104l-0.101,0.03l-0.099,0.092l-0.078,0.007L93.673,40.2c-0.017,0.008-0.026,0.013-0.032,0.013
	c-0.048,0-0.072-0.029-0.072-0.085c0-0.021,0.002-0.035,0.007-0.043l0.065-0.117l-0.019-0.185l0.063-0.51l-0.045-0.231l0.058-0.319
	l-0.013-0.117l0.053-0.194v-0.095h-0.047l-0.006-0.065l0.013-0.058l0.04-0.09l-0.006-0.051l0.006-0.078l-0.047-0.063l-0.019-0.355
	l0.013-0.084l0.006-0.142l0.029-0.095l-0.048-0.116v-0.005l0.013-0.215l-0.006-0.049l0.053-0.033l-0.012-0.174h-0.08
	c-0.013-0.063-0.019-0.112-0.019-0.147c0-0.039,0.006-0.104,0.019-0.199c0.002,0,0.006-0.002,0.006-0.005
	c0-0.014-0.002-0.023-0.008-0.029c-0.007-0.008-0.015-0.013-0.022-0.013L93.52,36.22l-0.051-0.044l-0.06-0.006l0.006-0.116
	l0.054-0.019l0.252-0.098l0.166-0.065l0.629,0.035l0.135-0.024c0.035-0.011,0.092-0.016,0.17-0.016h0.115l0.205,0.021l0.142,0.006
	l0.053-0.006l0.113-0.006l0.022,0.006l0.051,0.057h0.283l0.159,0.063l0.079-0.038l0.197,0.038l0.06,0.059
	c0.04,0.039,0.071,0.063,0.095,0.069l0.239,0.015l0.214,0.121l0.116,0.064c-0.013,0.025-0.019,0.04-0.019,0.043
	c0,0.027,0.021,0.059,0.068,0.091l0.006,0.085L97.063,36.686z M96.596,36.747l-0.051-0.097l-0.021-0.076l-0.225-0.227
	c-0.029-0.039-0.049-0.063-0.063-0.074c-0.01-0.01-0.028-0.02-0.053-0.029l-0.039,0.031c-0.287-0.114-0.516-0.172-0.69-0.172h-0.013
	h-0.289l-0.264-0.045l-0.179,0.063l-0.405-0.013c-0.059,0.01-0.103,0.033-0.134,0.067c-0.03,0.035-0.045,0.078-0.045,0.134
	l-0.009,0.238l-0.006,0.063l-0.057,0.039c0.032,0.022,0.057,0.045,0.073,0.066s0.024,0.047,0.024,0.073
	c0,0.017-0.004,0.03-0.014,0.048l-0.041,0.146l0.041,0.13v0.159l0.032,0.375l-0.013,0.05h-0.032c-0.044,0-0.065,0.021-0.065,0.065
	c0,0.032,0.01,0.051,0.031,0.059l0.098-0.008h0.283l0.077-0.013l0.052,0.07l0.09-0.019l0.229-0.063l0.435-0.046l0.25-0.076
	l0.217-0.073c0.091-0.026,0.145-0.054,0.16-0.081l0.066-0.092l0.122-0.084l0.013-0.05l0.086-0.052l0.03-0.047l0.218-0.203
	l0.041-0.129L96.596,36.747z"/>
<path fill="#6D6E71" d="M103.168,39.932c0,0.01-0.004,0.022-0.012,0.038l-0.124,0.104l-0.13,0.186H102.8l-0.063,0.014l-0.006-0.057
	l-0.037-0.078l0.007-0.063l-0.007-0.06c-0.031-0.059-0.049-0.109-0.053-0.154h-0.052l-0.024-0.069l-0.109-0.214l-0.018-0.11
	l-0.162-0.276c-0.019-0.037-0.027-0.08-0.027-0.129c0.001-0.008,0.003-0.016,0.004-0.021s0.001-0.016,0.001-0.027
	c-0.037-0.02-0.065-0.045-0.087-0.078c-0.075-0.127-0.12-0.229-0.135-0.309l-0.11-0.049c-0.019,0.094-0.055,0.14-0.108,0.14h-0.014
	l-0.326-0.059l-0.117,0.006l-0.084-0.013l-0.449,0.06l-0.264-0.013l-0.143,0.037l-0.109-0.037l-0.084-0.022
	c-0.027,0.035-0.052,0.058-0.07,0.069c-0.019,0.01-0.041,0.015-0.072,0.015h-0.018l-0.276-0.019l-0.104,0.025l-0.135,0.006
	c-0.046,0.01-0.097,0.08-0.154,0.213l-0.057,0.123l-0.035,0.013c-0.061,0.162-0.139,0.313-0.234,0.456l-0.006,0.064l-0.047,0.069
	L98.839,40.1c-0.013,0.039-0.06,0.065-0.141,0.084l0.005,0.051c-0.025,0.004-0.061,0.006-0.104,0.006
	c-0.062,0-0.125-0.022-0.191-0.068l0.121-0.214l0.089-0.11l0.071-0.115l0.045-0.069l0.043-0.06v-0.024
	c0.086-0.013,0.13-0.052,0.13-0.116v-0.074l0.097-0.117l0.137-0.295l0.077-0.11l0.089-0.194l0.104-0.197l0.123-0.207l0.128-0.123
	c0.009-0.009,0.013-0.019,0.013-0.033c0-0.017-0.01-0.035-0.031-0.057c0.039-0.025,0.064-0.05,0.082-0.066
	c0.018-0.019,0.033-0.043,0.047-0.074l-0.037-0.061l0.037-0.063l0.051-0.146c0.007-0.014,0.031-0.039,0.078-0.078l-0.006-0.032
	l0.142-0.361l0.11-0.295c0.021-0.055,0.067-0.122,0.142-0.201l-0.024-0.069l0.019-0.084c0.013-0.062,0.024-0.103,0.036-0.125
	c0.012-0.024,0.031-0.041,0.061-0.051c0.027-0.011,0.063-0.021,0.107-0.027l0.019-0.047l-0.032-0.096
	c-0.007-0.025-0.012-0.043-0.012-0.053c0-0.029,0.012-0.05,0.037-0.063l0.214-0.143l0.044-0.096
	c0.043-0.057,0.104-0.085,0.176-0.092l0.037,0.127h0.037l-0.013,0.035l0.045,0.095l0.091,0.116l0.116,0.215l0.063,0.172l0.078,0.141
	l-0.078,0.025c0,0.021,0.008,0.042,0.027,0.059c0.076,0.044,0.114,0.085,0.114,0.124l-0.007,0.056l0.072,0.078l0.086,0.143
	l0.043,0.074l0.006,0.025l-0.024,0.061l0.013,0.063l0.043,0.059l0.092,0.076l0.109,0.221l0.059,0.097v0.076
	c0.08,0.071,0.121,0.125,0.121,0.164c0,0.003-0.004,0.018-0.013,0.043l0.063,0.063l0.141,0.238c0.014,0.018,0.023,0.035,0.031,0.048
	s0.02,0.036,0.037,0.066s0.029,0.052,0.037,0.063c0.035,0.055,0.055,0.09,0.061,0.106c0.005,0.016,0.01,0.047,0.012,0.089
	c0.073,0.035,0.11,0.075,0.11,0.122c0,0.005-0.003,0.009-0.01,0.013l-0.013,0.135c0-0.004,0.004,0.012,0.013,0.045l0.128,0.065
	l0.042,0.056l0.019,0.061c0.008,0.031,0.043,0.063,0.104,0.094v0.073l0.107,0.11l0.104,0.172l0.053,0.063
	c0.025,0.032,0.045,0.064,0.061,0.101C103.16,39.893,103.168,39.917,103.168,39.932z M101.877,38.318l-0.027-0.025l0.012-0.021
	l-0.012-0.032h-0.063c-0.024-0.029-0.045-0.109-0.06-0.239l-0.006-0.063l-0.119-0.031l-0.151-0.299h-0.044l-0.192-0.377l0.024-0.072
	l-0.018-0.078l-0.147-0.076l-0.226-0.449c-0.009-0.022-0.058-0.07-0.147-0.145l-0.038,0.027l-0.04,0.129l-0.026,0.007
	c-0.023,0.088-0.043,0.143-0.056,0.163c-0.013,0.021-0.039,0.051-0.078,0.089c-0.055,0.047-0.085,0.097-0.091,0.147l-0.014,0.075
	l-0.142,0.312c-0.014,0.037-0.028,0.07-0.041,0.098s-0.021,0.045-0.024,0.053s-0.012,0.02-0.022,0.035
	c-0.01,0.016-0.022,0.027-0.035,0.037l-0.024,0.066c-0.017,0.043-0.03,0.067-0.041,0.076c-0.01,0.01-0.033,0.017-0.068,0.019
	l-0.006,0.071c-0.01,0.107-0.028,0.186-0.053,0.236c-0.026,0.051-0.071,0.096-0.135,0.139l0.057,0.088
	c-0.024,0.002-0.043,0.009-0.057,0.021c-0.013,0.014-0.022,0.034-0.031,0.063l-0.022,0.078l0.054,0.008l0.104,0.031l0.082-0.014
	l0.071,0.025l0.014-0.025l0.056-0.006l0.405,0.025l0.258-0.02l0.104,0.044c0.016-0.015,0.025-0.024,0.033-0.026
	s0.03-0.006,0.067-0.01c0.038-0.002,0.097-0.009,0.177-0.02l0.084-0.014l-0.013,0.033l0.024,0.012c0.019,0,0.043-0.017,0.069-0.049
	l0.085-0.008c0.11-0.01,0.194-0.018,0.252-0.021c0.055-0.006,0.09-0.01,0.103-0.014s0.032-0.012,0.058-0.024
	C101.826,38.354,101.852,38.336,101.877,38.318z"/>
<path fill="#6D6E71" d="M106.486,35.968l-0.012,0.097l-0.02,0.104l-0.063,0.105l0.043,0.332c0,0.043-0.023,0.113-0.072,0.211v0.058
	l0.047,0.019l-0.006,0.098l0.012,0.258c0,0.049-0.003,0.083-0.012,0.105c-0.01,0.021-0.028,0.049-0.059,0.08l0.045,0.072
	l-0.006,0.094v0.084l-0.064,0.111l0.031,0.082c0.019,0.045,0.028,0.076,0.028,0.091l-0.017,0.173v0.189l-0.043,0.146v0.026
	c0,0.031,0.017,0.058,0.05,0.078v0.116l0.01,0.068l0.005,0.135v0.052l-0.06,0.176l0.06,0.031l-0.021,0.051l0.027,0.176l-0.012,0.296
	l0.018,0.121l0.006,0.083c-0.189,0.173-0.321,0.257-0.393,0.257l-0.037-0.004l-0.01,0.033l-0.111,0.025l-0.055-0.079
	c0.04-0.073,0.061-0.132,0.061-0.173v-0.072l0.082-0.277v-0.094v-0.109l0.141-0.025l0.006-0.028c0-0.019-0.011-0.046-0.031-0.082
	l-0.076,0.007l-0.017-0.014l-0.019,0.02l0.013-0.104l0.006-0.142l0.022-0.232l-0.006-0.123l0.056-0.088
	c-0.037-0.036-0.06-0.064-0.067-0.084c-0.007-0.02-0.011-0.057-0.011-0.111c0-0.054,0.017-0.111,0.047-0.172l-0.047-0.051V38.07
	l0.006-0.301c0-0.02-0.001-0.033-0.006-0.041l-0.013-0.063l-0.006-0.065c0.026-0.024,0.041-0.054,0.041-0.089l-0.061-0.065
	l0.025-0.051l-0.025-0.231l0.038-0.116v-0.013c0-0.034-0.021-0.07-0.063-0.11l-0.006-0.063l-0.018-0.277l0.018-0.117l-0.043-0.064
	l0.006-0.101v-0.183c0.022-0.038,0.053-0.059,0.094-0.059l0.164-0.012c0.024-0.004,0.059-0.044,0.1-0.123l0.111-0.031l0.104-0.041
	c-0.004,0,0.012,0.004,0.044,0.013C106.48,35.917,106.486,35.949,106.486,35.968z"/>
<path fill="#6D6E71" d="M113.051,38.62c0,0.05-0.01,0.108-0.031,0.178l-0.129-0.006l-0.043,0.019l0.012,0.086
	c0.045,0.024,0.07,0.063,0.07,0.115c0,0.086-0.01,0.141-0.025,0.166l-0.168,0.221l-0.055,0.093l-0.123,0.129l-0.123,0.116
	l-0.065,0.035l-0.493,0.32l-0.245,0.079c-0.059,0.024-0.104,0.037-0.135,0.037c-0.009,0-0.03-0.005-0.065-0.019
	c-0.061,0.035-0.131,0.051-0.211,0.051l-0.147-0.006h-0.286l-0.102-0.025l-0.373-0.023l-0.207-0.117l-0.09,0.02l0.039,0.031
	l-0.092-0.014l-0.088-0.012l-0.245-0.179l-0.167-0.022l-0.175-0.106c-0.074-0.054-0.11-0.089-0.11-0.11
	c0-0.042,0.018-0.093,0.051-0.154c0.033-0.063,0.072-0.119,0.119-0.168c0.059-0.069,0.125-0.108,0.197-0.119l0.047,0.234
	c0.043,0.021,0.073,0.039,0.085,0.055c0.013,0.015,0.023,0.043,0.035,0.086l0.073-0.012l0.063,0.041l0.053,0.075l0.211,0.06
	l0.214,0.095l0.43,0.091c0.074,0.046,0.117,0.068,0.129,0.068c0.029,0,0.048-0.021,0.054-0.062l0.043-0.007l0.394,0.025l0.123-0.063
	l0.069,0.024l0.117-0.024l0.135-0.046c0.074-0.025,0.129-0.059,0.16-0.102l0.09-0.121l0.111-0.116
	c0.016-0.029,0.033-0.079,0.051-0.147c0.08,0,0.123-0.027,0.123-0.08l-0.014-0.062l-0.007-0.079l0.051-0.057l0.099-0.291h0.031
	l-0.013-0.186l-0.063-0.174l-0.024-0.072l-0.091-0.007l-0.231-0.141l-0.284-0.11l-0.063-0.068l-0.092-0.054l-0.065,0.035
	l-0.019,0.031l-0.43-0.019l-0.099-0.117l-0.075,0.098l-0.074-0.018l-0.18-0.037c-0.119-0.023-0.211-0.045-0.275-0.065
	c-0.063-0.019-0.117-0.044-0.162-0.076l0.006-0.069l-0.109-0.047c0.001,0-0.016,0.004-0.053,0.014
	c-0.077-0.057-0.125-0.103-0.146-0.135c-0.021-0.031-0.048-0.097-0.076-0.192l0.024-0.005l-0.063-0.073l-0.008-0.101l-0.014-0.104
	v-0.031l0.041-0.13l0.038-0.071l0.037-0.099l0.104-0.075c0.049-0.035,0.072-0.095,0.072-0.182l0.057-0.044l0.344-0.258l0.146-0.089
	l0.242-0.121l0.336-0.111l0.078-0.025l0.082-0.012l0.193-0.023l0.096-0.035l0.316,0.035l0.142-0.004l0.089,0.035l0.156,0.036
	c0.106,0.028,0.16,0.063,0.16,0.104c0,0.016-0.002,0.031-0.006,0.043c-0.041,0.015-0.063,0.022-0.065,0.025l-0.082,0.071
	c-0.05,0.036-0.134,0.069-0.251,0.101l-0.064-0.037l-0.168-0.123l-0.091-0.012l-0.258-0.052l-0.147,0.006l-0.174,0.007l-0.307,0.159
	l-0.221,0.11l-0.147,0.115l-0.072,0.082l-0.136,0.24l-0.123,0.084l-0.025,0.075l0.086,0.048c-0.01,0.02-0.014,0.043-0.014,0.068
	c0,0.021,0.012,0.055,0.031,0.104l-0.122,0.063l0.03,0.071l0.066,0.025l0.115,0.019l0.124,0.104l0.257,0.115l0.07,0.063l0.219-0.02
	l0.191,0.02l0.014,0.041l0.078-0.013l0.109-0.013c0.021,0,0.037,0.002,0.045,0.005l0.166,0.038l0.084,0.02
	c0.016,0.099,0.043,0.147,0.082,0.147c0.006-0.002,0.008-0.003,0.012-0.004c0.003-0.001,0.007-0.002,0.011-0.002l0.142-0.091
	l0.168,0.013l0.123-0.006c0.066,0,0.131,0.026,0.191,0.079l0.16,0.141c0.003,0,0.005,0,0.008,0c0.004,0,0.012-0.001,0.025-0.002
	c0.013,0,0.023-0.002,0.033-0.004h0.004c0.031,0,0.104,0.072,0.221,0.22l0.051,0.063l0.014,0.084L113.051,38.62z"/>
<path fill="#6D6E71" d="M119.975,39.932c0,0.01-0.004,0.022-0.014,0.038l-0.123,0.104l-0.129,0.186h-0.104l-0.063,0.014
	l-0.006-0.057l-0.038-0.078l0.007-0.063l-0.007-0.06c-0.032-0.059-0.049-0.109-0.054-0.154h-0.049l-0.025-0.069l-0.109-0.214
	l-0.02-0.11l-0.16-0.276c-0.02-0.037-0.027-0.08-0.027-0.129c0-0.008,0.002-0.016,0.004-0.021c0-0.006,0.002-0.016,0.002-0.027
	c-0.039-0.02-0.067-0.045-0.088-0.078c-0.076-0.127-0.121-0.229-0.136-0.309l-0.108-0.049c-0.021,0.094-0.058,0.14-0.111,0.14
	h-0.014l-0.326-0.059l-0.115,0.006l-0.084-0.013l-0.449,0.06l-0.266-0.013l-0.141,0.037l-0.111-0.037l-0.084-0.022
	c-0.027,0.035-0.051,0.058-0.069,0.069c-0.019,0.01-0.042,0.015-0.071,0.015h-0.02l-0.276-0.019l-0.104,0.025l-0.133,0.006
	c-0.047,0.01-0.099,0.08-0.155,0.213l-0.056,0.123l-0.035,0.013c-0.062,0.162-0.14,0.313-0.235,0.456l-0.006,0.064l-0.048,0.069
	l-0.174,0.388c-0.013,0.039-0.06,0.065-0.142,0.084l0.007,0.051c-0.025,0.004-0.06,0.006-0.104,0.006
	c-0.061,0-0.125-0.022-0.191-0.068l0.123-0.214l0.088-0.11l0.073-0.115l0.044-0.069l0.043-0.06v-0.024
	c0.086-0.013,0.129-0.052,0.129-0.116v-0.074l0.098-0.117l0.136-0.295l0.077-0.11l0.088-0.194l0.104-0.197l0.122-0.207l0.129-0.123
	c0.008-0.009,0.014-0.019,0.014-0.033c0-0.017-0.012-0.035-0.032-0.057c0.036-0.025,0.063-0.05,0.081-0.066
	c0.019-0.019,0.033-0.043,0.048-0.074l-0.038-0.061l0.038-0.063l0.05-0.146c0.008-0.014,0.033-0.039,0.079-0.078l-0.008-0.034
	l0.141-0.361l0.11-0.295c0.021-0.056,0.068-0.122,0.142-0.201l-0.024-0.069l0.019-0.084c0.013-0.062,0.024-0.103,0.036-0.125
	c0.012-0.024,0.031-0.041,0.061-0.051c0.027-0.011,0.063-0.021,0.108-0.027l0.019-0.047l-0.031-0.096
	c-0.01-0.025-0.014-0.043-0.014-0.053c0-0.029,0.014-0.05,0.037-0.063l0.215-0.143l0.043-0.096c0.043-0.057,0.104-0.086,0.176-0.092
	l0.037,0.127h0.039l-0.013,0.035l0.044,0.094l0.092,0.117l0.115,0.213l0.063,0.173l0.08,0.141l-0.08,0.025
	c0,0.021,0.011,0.042,0.029,0.059c0.075,0.044,0.113,0.085,0.113,0.124l-0.006,0.057l0.072,0.078l0.085,0.142l0.043,0.073
	l0.006,0.026l-0.024,0.06l0.012,0.063l0.045,0.06l0.091,0.076l0.11,0.219l0.057,0.098v0.076c0.082,0.07,0.123,0.125,0.123,0.164
	c0,0.003-0.004,0.018-0.014,0.043l0.063,0.063l0.142,0.238c0.014,0.019,0.021,0.035,0.03,0.048c0.007,0.014,0.021,0.036,0.037,0.066
	c0.019,0.029,0.03,0.052,0.037,0.063c0.036,0.056,0.056,0.091,0.062,0.106s0.01,0.047,0.012,0.089
	c0.072,0.035,0.109,0.075,0.109,0.122c0,0.005-0.002,0.009-0.01,0.013l-0.013,0.136c0-0.004,0.005,0.01,0.013,0.043l0.129,0.066
	l0.041,0.057l0.018,0.06c0.009,0.03,0.043,0.062,0.104,0.094v0.073l0.106,0.109l0.104,0.174l0.053,0.063
	c0.026,0.032,0.047,0.064,0.061,0.102C119.966,39.893,119.975,39.917,119.975,39.932z M118.682,38.318l-0.027-0.025l0.013-0.021
	l-0.013-0.032h-0.063c-0.024-0.029-0.045-0.109-0.06-0.239l-0.006-0.063l-0.119-0.031l-0.151-0.299h-0.045l-0.19-0.377l0.024-0.072
	l-0.019-0.078l-0.147-0.076l-0.226-0.449c-0.008-0.022-0.057-0.07-0.148-0.145l-0.038,0.027l-0.041,0.129l-0.024,0.008
	c-0.024,0.088-0.043,0.143-0.057,0.164c-0.013,0.021-0.037,0.05-0.078,0.088c-0.055,0.047-0.084,0.097-0.092,0.146l-0.012,0.076
	l-0.143,0.311c-0.014,0.039-0.026,0.07-0.041,0.099c-0.013,0.026-0.021,0.045-0.024,0.053c-0.004,0.009-0.013,0.02-0.022,0.035
	c-0.01,0.017-0.021,0.027-0.035,0.037l-0.023,0.065c-0.018,0.043-0.031,0.068-0.041,0.078c-0.012,0.008-0.034,0.016-0.068,0.018
	l-0.007,0.072c-0.009,0.106-0.024,0.185-0.052,0.235c-0.025,0.05-0.071,0.097-0.135,0.138l0.057,0.088
	c-0.025,0.003-0.043,0.01-0.057,0.022c-0.012,0.013-0.022,0.034-0.031,0.063l-0.021,0.078l0.053,0.007l0.104,0.03l0.082-0.013
	l0.072,0.025l0.013-0.025l0.057-0.006l0.404,0.024l0.258-0.019l0.104,0.044c0.015-0.015,0.024-0.023,0.034-0.025
	c0.006-0.004,0.029-0.006,0.066-0.01c0.037-0.002,0.096-0.01,0.176-0.021l0.084-0.013l-0.014,0.031l0.025,0.014
	c0.02,0,0.042-0.018,0.068-0.051l0.086-0.006c0.11-0.011,0.194-0.019,0.25-0.022c0.057-0.007,0.093-0.011,0.104-0.013
	c0.013-0.004,0.032-0.013,0.058-0.025C118.631,38.354,118.657,38.336,118.682,38.318z"/>
<path fill="#6D6E71" d="M125.25,36.857c0,0.004,0,0.009-0.001,0.015s-0.003,0.011-0.005,0.017l-0.051,0.11l0.019,0.142l-0.041,0.075
	l0.047,0.163l-0.034,0.117l0.028,0.27v0.021c0,0.013-0.003,0.026-0.013,0.043l-0.047,0.051l0.06,0.129v0.13l-0.006,0.187
	l-0.046,0.129l0.02,0.116l-0.007,0.07l-0.007,0.193c0,0.057-0.031,0.104-0.094,0.143l-0.012,0.051l-0.047,0.005v0.038l0.084,0.006
	l-0.006,0.078l-0.047,0.16c-0.027,0.103-0.049,0.153-0.063,0.153l-0.129,0.084l-0.037,0.052v0.116
	c-0.062,0.003-0.11,0.023-0.147,0.06l0.069,0.063l-0.258,0.221c-0.153,0.133-0.321,0.197-0.504,0.197
	c-0.018,0-0.05-0.006-0.094-0.019c-0.053,0.024-0.132,0.038-0.238,0.038h-0.123c-0.092,0-0.194-0.021-0.308-0.063
	c-0.024-0.073-0.062-0.11-0.11-0.11c-0.008,0-0.023,0.004-0.047,0.011c-0.021,0.007-0.045,0.013-0.068,0.015l-0.069,0.014
	l-0.116-0.043l-0.193-0.104l-0.18-0.063l-0.084-0.072l-0.063-0.043l-0.061-0.483v-0.044l0.123-0.085l0.053,0.065l0.115,0.252
	l0.137,0.106l0.119,0.123h0.072c0.137,0.117,0.26,0.177,0.368,0.177l0.082-0.008l0.054,0.045c0.047,0.053,0.082,0.078,0.1,0.078
	c0.027,0,0.057-0.018,0.084-0.054c0.049,0.021,0.1,0.032,0.154,0.032h0.123l0.172-0.006l0.135-0.058
	c0.197-0.11,0.313-0.205,0.343-0.283l0.03-0.079l0.098-0.154l0.02-0.084l0.043-0.037l-0.006-0.081l0.012-0.093l0.041-0.225
	l0.039-0.357l0.031-0.08l-0.006-0.078l0.006-0.178l-0.006-0.045l0.02-0.02h0.053c0.025,0.014,0.042,0.02,0.05,0.02
	c0.024,0,0.054-0.019,0.085-0.054c-0.055-0.058-0.122-0.089-0.201-0.095l-0.006-0.084l-0.031-0.348v-0.039l0.019-0.25
	c0-0.021-0.001-0.034-0.006-0.039l-0.05-0.115c-0.014,0-0.02-0.028-0.02-0.085V37.04l0.012-0.187l0.008-0.123
	c0-0.008-0.004-0.015-0.008-0.018l-0.045-0.104c-0.009-0.026-0.014-0.047-0.014-0.066c0-0.04,0.014-0.092,0.041-0.154l0.006-0.051
	l-0.027-0.006l-0.033,0.013l-0.049-0.044c-0.054-0.045-0.08-0.078-0.08-0.096v-0.007l0.172-0.109l0.184-0.123l0.155-0.057
	l0.036-0.065l0.078-0.013c0.051,0.06,0.076,0.118,0.076,0.18l-0.013,0.145l-0.024,0.019c0,0.006,0,0.008,0,0.014
	c-0.002,0.004-0.004,0.008-0.006,0.012c0,0.021,0.022,0.037,0.065,0.051v0.098v0.043l-0.06,0.164c0,0.008,0.002,0.019,0.006,0.031
	l0.06,0.038l0.032,0.153L125.25,36.857z"/>
<path fill="#6D6E71" d="M128.999,35.968l-0.013,0.097l-0.02,0.104l-0.063,0.105l0.043,0.332c0,0.043-0.023,0.113-0.073,0.211v0.058
	l0.047,0.019l-0.005,0.098l0.014,0.258c0,0.049-0.005,0.083-0.014,0.105c-0.009,0.021-0.029,0.049-0.061,0.08l0.047,0.072
	l-0.006,0.094v0.084l-0.065,0.111l0.03,0.082c0.021,0.045,0.029,0.076,0.029,0.091l-0.017,0.173v0.189l-0.043,0.146v0.026
	c0,0.031,0.017,0.058,0.051,0.078v0.116l0.009,0.068l0.006,0.135v0.052l-0.06,0.176l0.06,0.031l-0.022,0.051l0.028,0.176
	l-0.012,0.296l0.019,0.121l0.006,0.083c-0.19,0.173-0.322,0.257-0.394,0.257l-0.037-0.004l-0.01,0.033l-0.113,0.025l-0.053-0.079
	c0.039-0.073,0.06-0.132,0.06-0.173v-0.072l0.082-0.277v-0.094v-0.109l0.142-0.025l0.006-0.028c0-0.019-0.011-0.046-0.031-0.082
	l-0.075,0.007l-0.017-0.014l-0.019,0.02l0.013-0.104l0.006-0.142l0.022-0.232l-0.006-0.123l0.057-0.088
	c-0.038-0.036-0.062-0.064-0.067-0.084c-0.008-0.02-0.012-0.057-0.012-0.111c0-0.054,0.016-0.111,0.047-0.172l-0.047-0.051V38.07
	l0.006-0.301c0-0.02-0.002-0.033-0.006-0.041l-0.013-0.063L128.45,37.6c0.026-0.024,0.041-0.054,0.041-0.089l-0.06-0.065
	l0.024-0.051l-0.024-0.231l0.037-0.116v-0.013c0-0.034-0.021-0.07-0.063-0.11l-0.008-0.063l-0.019-0.277l0.019-0.117l-0.043-0.064
	l0.006-0.101v-0.183c0.022-0.038,0.055-0.059,0.095-0.059l0.163-0.012c0.025-0.004,0.061-0.044,0.102-0.123l0.109-0.031l0.104-0.041
	c-0.002,0,0.012,0.004,0.045,0.013C128.992,35.917,128.999,35.949,128.999,35.968z"/>
<path fill="#6D6E71" d="M135.563,38.62c0,0.05-0.01,0.108-0.031,0.178l-0.129-0.006l-0.043,0.019l0.013,0.086
	c0.046,0.024,0.069,0.063,0.069,0.115c0,0.086-0.008,0.141-0.025,0.166l-0.167,0.221l-0.056,0.093l-0.123,0.129l-0.122,0.116
	l-0.066,0.035l-0.493,0.32l-0.246,0.079c-0.058,0.024-0.104,0.037-0.134,0.037c-0.008,0-0.03-0.005-0.065-0.019
	c-0.062,0.035-0.131,0.051-0.211,0.051l-0.147-0.006h-0.286l-0.1-0.025l-0.374-0.023l-0.208-0.117l-0.088,0.02l0.037,0.031
	l-0.092-0.014l-0.086-0.012l-0.246-0.179l-0.166-0.022l-0.177-0.106c-0.073-0.054-0.11-0.089-0.11-0.11
	c0-0.042,0.018-0.093,0.052-0.154c0.032-0.063,0.073-0.119,0.118-0.168c0.06-0.069,0.125-0.108,0.199-0.119l0.045,0.234
	c0.045,0.021,0.073,0.039,0.086,0.055c0.012,0.015,0.022,0.043,0.033,0.086l0.073-0.012l0.063,0.041l0.053,0.075l0.21,0.06
	l0.214,0.095l0.432,0.091c0.072,0.046,0.115,0.068,0.129,0.068c0.028,0,0.047-0.021,0.053-0.062l0.044-0.007l0.393,0.025
	l0.123-0.063l0.069,0.024l0.115-0.024l0.136-0.046c0.075-0.025,0.129-0.059,0.161-0.102l0.091-0.121l0.11-0.116
	c0.017-0.029,0.033-0.079,0.051-0.147c0.08,0,0.121-0.027,0.121-0.08l-0.012-0.062l-0.006-0.079l0.051-0.057l0.097-0.291h0.03
	l-0.012-0.186l-0.063-0.174l-0.025-0.072l-0.091-0.007l-0.233-0.141l-0.283-0.11l-0.063-0.068l-0.092-0.054l-0.066,0.035
	l-0.018,0.031l-0.432-0.019l-0.097-0.117l-0.075,0.098l-0.074-0.016l-0.178-0.037c-0.119-0.023-0.211-0.045-0.275-0.065
	c-0.063-0.019-0.116-0.044-0.161-0.076l0.006-0.069l-0.11-0.047c0.002,0-0.015,0.004-0.054,0.014
	c-0.075-0.057-0.124-0.102-0.146-0.135c-0.022-0.031-0.047-0.097-0.078-0.192l0.025-0.005l-0.063-0.073l-0.01-0.101l-0.012-0.104
	V37.1l0.04-0.13l0.039-0.071l0.037-0.099l0.104-0.075c0.047-0.035,0.072-0.095,0.072-0.182l0.055-0.044l0.345-0.258l0.147-0.089
	l0.241-0.121l0.337-0.111l0.077-0.025l0.082-0.012l0.195-0.023l0.093-0.035l0.318,0.035l0.141-0.004l0.088,0.035l0.157,0.036
	c0.106,0.028,0.16,0.063,0.16,0.104c0,0.016-0.001,0.031-0.007,0.043c-0.041,0.015-0.063,0.023-0.064,0.025l-0.082,0.071
	c-0.051,0.036-0.135,0.069-0.252,0.101l-0.066-0.037l-0.164-0.123l-0.092-0.012l-0.258-0.052l-0.148,0.007l-0.172,0.006
	l-0.309,0.159l-0.22,0.11l-0.147,0.115l-0.072,0.082l-0.135,0.24l-0.123,0.084l-0.025,0.075l0.084,0.048
	c-0.008,0.02-0.012,0.043-0.012,0.068c0,0.021,0.01,0.055,0.031,0.104l-0.122,0.063l0.031,0.071l0.065,0.025l0.115,0.019
	l0.123,0.104l0.258,0.114l0.069,0.063l0.22-0.02l0.191,0.02l0.012,0.041l0.079-0.013l0.11-0.013c0.021,0,0.035,0.002,0.044,0.005
	l0.167,0.038l0.084,0.02c0.016,0.099,0.042,0.147,0.083,0.147c0.004-0.002,0.007-0.003,0.011-0.004s0.006-0.002,0.012-0.002
	l0.142-0.091l0.166,0.013l0.122-0.006c0.066,0,0.132,0.026,0.191,0.079l0.16,0.141c0.002,0,0.004,0,0.008,0
	c0.002,0,0.012-0.001,0.024-0.002c0.015,0,0.024-0.002,0.033-0.004h0.006c0.03,0,0.103,0.073,0.22,0.22l0.051,0.063l0.012,0.084
	L135.563,38.62z"/>
<path fill="#6D6E71" d="M143.148,39.803c0,0.07-0.035,0.146-0.104,0.225c-0.056,0.061-0.103,0.091-0.135,0.091
	c-0.005,0-0.019-0.004-0.044-0.013l-0.057,0.037c-0.045,0.035-0.082,0.055-0.109,0.055l-0.051-0.006l0.006-0.078l0.023-0.18
	l-0.005-0.129l0.056-0.381l-0.03-0.167l-0.021-0.366l-0.018-0.13l0.006-0.313l-0.014-0.208l0.014-0.123l-0.047-0.405l0.041-0.082
	l-0.053-0.021v-0.076l-0.045-0.188l0.006-0.179l-0.031-0.075l-0.079,0.019l-0.024,0.037l0.012,0.092l-0.166,0.252l-0.006,0.068
	l-0.053,0.051l-0.033,0.084l-0.043,0.065l-0.019,0.114l-0.085,0.188l-0.014,0.069c-0.068,0.056-0.115,0.108-0.141,0.154
	l-0.104,0.233L141.501,39l-0.201,0.374l-0.05,0.075l-0.186,0.173c-0.023,0.019-0.035,0.036-0.035,0.053
	c0.004,0.005,0.008,0.009,0.01,0.013c0.013,0.051,0.02,0.084,0.02,0.098l-0.007,0.031c-0.04,0.007-0.069,0.019-0.086,0.035
	c-0.018,0.02-0.034,0.047-0.049,0.088c-0.026,0.072-0.049,0.123-0.065,0.151c-0.02,0.028-0.043,0.05-0.07,0.064
	c-0.028,0.015-0.071,0.028-0.127,0.04c-0.055-0.061-0.086-0.101-0.096-0.118c-0.008-0.019-0.016-0.052-0.021-0.095l-0.023-0.025
	c0-0.043-0.027-0.078-0.08-0.104l-0.024,0.024l-0.048-0.082l-0.074-0.208l-0.064-0.088l-0.07-0.195l-0.077-0.115
	c0.026-0.051,0.04-0.098,0.04-0.143c0-0.033-0.008-0.057-0.021-0.068l-0.1-0.084l-0.395-0.78l-0.097-0.204h0.006l0.019-0.085
	l-0.051-0.104l-0.018-0.095l-0.066,0.032l-0.037-0.066c-0.065-0.111-0.106-0.187-0.123-0.229c-0.018-0.043-0.039-0.104-0.063-0.189
	c-0.056,0-0.089-0.016-0.104-0.049l-0.047,0.104h-0.051l-0.013,0.024c0.03,0.044,0.044,0.086,0.044,0.129l-0.018,0.239
	c-0.004,0.037-0.006,0.066-0.008,0.089c-0.005,0.022-0.01,0.039-0.018,0.051c-0.008,0.011-0.021,0.033-0.045,0.063l0.076,0.154
	l-0.014,0.078l-0.006,0.224l-0.02,0.135l0.02,0.679l-0.037,0.102c0.028,0.06,0.043,0.121,0.043,0.182v0.025v0.037
	c-0.054,0.006-0.09,0.02-0.105,0.041c-0.018,0.021-0.028,0.063-0.035,0.125l0.115,0.041l0.007,0.069v0.072
	c0,0.063-0.009,0.101-0.024,0.116l-0.24,0.16l-0.115,0.094l-0.045,0.011l-0.064-0.011l-0.007-0.036l-0.013-0.058l0.06-0.148v-0.305
	l0.052-0.377l-0.008-0.201l-0.006-0.068l0.014-0.098l-0.008-0.078c0.032-0.023,0.051-0.059,0.057-0.104l0.035-0.02
	c-0.007-0.04-0.014-0.064-0.021-0.075l-0.038-0.077c0-0.012,0-0.02-0.001-0.027c-0.002-0.006-0.003-0.012-0.005-0.019
	c0-0.032,0.018-0.065,0.053-0.104c-0.035-0.062-0.053-0.114-0.053-0.161v-0.018l0.019-0.388l-0.019-0.336l0.006-0.069l0.104,0.033
	c0.02-0.027,0.03-0.051,0.03-0.07v-0.021l-0.142-0.013l-0.014-0.154l0.104-0.006l0.012-0.063c0-0.039-0.03-0.068-0.091-0.093
	l-0.031-0.172h0.031l0.006-0.042l-0.05-0.307l0.006-0.148l-0.058-0.123c0-0.042,0.039-0.08,0.115-0.115l0.06,0.012l0.037-0.081
	l0.065-0.027l0.141-0.106c0.031-0.024,0.06-0.035,0.082-0.035l0.066,0.016c0.002,0.039,0.008,0.068,0.021,0.086
	c0.012,0.02,0.036,0.037,0.073,0.055c0.004,0.027,0.011,0.053,0.019,0.075c0.008,0.021,0.022,0.048,0.043,0.08
	c0.019,0.031,0.047,0.077,0.083,0.136l-0.029,0.068l-0.031,0.104l0.014,0.039l0.097,0.047l0.076,0.235l-0.063,0.099l0.039,0.019
	l0.024,0.065c0.063,0.004,0.114,0.043,0.157,0.117l0.101,0.223l0.116,0.33c-0.055,0.048-0.082,0.087-0.082,0.115l0.032,0.076
	l0.069,0.006c0.035,0.004,0.058,0.012,0.068,0.022c0.012,0.011,0.021,0.034,0.035,0.069l-0.057,0.091
	c0.022,0.028,0.043,0.044,0.063,0.044h0.037l0.042,0.058c0.082,0.151,0.122,0.243,0.122,0.276l-0.024,0.097l-0.021,0.073
	l0.061,0.031l0.063,0.013l0.072,0.099l0.123,0.127l0.031,0.123l0.069,0.063l0.084,0.208l0.073,0.074l0.101,0.203l0.054,0.043
	l0.076-0.073l0.225-0.253l0.117-0.202l0.104-0.192l0.154-0.263l0.289-0.675l0.117-0.176l0.03-0.198l0.16-0.361l0.024-0.098
	l0.041-0.013l0.039-0.031v-0.025l0.049-0.025l-0.006-0.053l-0.056-0.025c0.017-0.086,0.037-0.137,0.063-0.153l0.06-0.024
	l0.056-0.047c-0.024-0.044-0.056-0.092-0.094-0.142c0.034-0.045,0.051-0.084,0.051-0.113c0-0.016-0.002-0.026-0.007-0.034
	l0.058-0.063l0.097-0.147l0.187-0.154c0.08-0.068,0.127-0.104,0.145-0.104l0.076,0.02l-0.021,0.213l0.025,0.024l0.062-0.006
	c0.057,0,0.086,0.017,0.086,0.05l-0.006,0.123l-0.023,0.104l-0.039-0.013l-0.012,0.057l0.043,0.117l0.014,0.668v0.031
	c0,0.032-0.01,0.062-0.025,0.084l-0.085,0.116c-0.007,0.009-0.013,0.033-0.013,0.074c0.017,0.026,0.033,0.042,0.051,0.049
	c0.016,0.007,0.043,0.011,0.078,0.011l0.007,0.116l-0.013,0.519l0.05,0.228l0.028,0.394l0.024,0.263
	c0,0.037-0.009,0.079-0.024,0.129c0.027,0.033,0.043,0.062,0.05,0.085c0.006,0.021,0.013,0.083,0.019,0.18l0.014,0.245v0.003
	H143.148z"/>
<path fill="#6D6E71" d="M151.428,38.02c0,0.015-0.002,0.026-0.006,0.035l-0.057,0.186l0.005,0.16l-0.046,0.084
	c-0.008-0.004-0.024-0.006-0.045-0.006c-0.014,0-0.023,0.012-0.034,0.031c-0.011,0.021-0.017,0.045-0.017,0.073
	c0,0.008,0.002,0.015,0.006,0.019c0.043,0.069,0.063,0.113,0.063,0.135c0,0.017-0.003,0.031-0.013,0.044
	c-0.043,0.042-0.074,0.089-0.092,0.142l-0.068,0.031l0.02,0.021l-0.02,0.019l0.05,0.038l-0.005,0.019l-0.057,0.054l-0.072,0.119
	l-0.051,0.053c-0.029-0.028-0.053-0.043-0.072-0.043c-0.038,0-0.057,0.021-0.057,0.063c0,0.017,0.018,0.046,0.051,0.091
	c-0.064,0.108-0.172,0.211-0.321,0.303c-0.155,0.098-0.315,0.187-0.479,0.266c-0.166,0.08-0.293,0.129-0.383,0.146l-0.063,0.013
	c-0.157,0.028-0.255,0.043-0.294,0.043h-0.014l-0.123-0.007l-0.078,0.013l-0.115-0.068l-0.089,0.037
	c-0.039,0.027-0.067,0.042-0.083,0.042h-0.025c-0.017-0.04-0.035-0.068-0.051-0.087c-0.018-0.019-0.043-0.035-0.078-0.049
	c-0.13,0.067-0.23,0.103-0.302,0.103c-0.024,0-0.05-0.01-0.073-0.025c-0.045,0-0.07-0.004-0.076-0.008l-0.219-0.062l-0.186,0.005
	l-0.073-0.06l-0.104,0.013l-0.088-0.013l-0.128-0.037l-0.399-0.093l-0.109-0.088l-0.143-0.053l-0.147-0.154
	c-0.034-0.025-0.083-0.039-0.147-0.039l-0.084-0.096c0.017-0.039,0.024-0.07,0.024-0.092c0-0.064-0.077-0.109-0.231-0.135V39.18
	l-0.039-0.013l-0.037-0.069l-0.031-0.035v-0.069l-0.066-0.188l-0.013-0.063l-0.05-0.276l0.019-0.271l0.024-0.078l0.02-0.174
	l0.152-0.404l0.02-0.073c0.045-0.108,0.113-0.188,0.207-0.241v-0.041l0.161-0.18c0.025,0.01,0.04,0.014,0.044,0.014
	c0.031,0,0.053-0.014,0.066-0.039l0.044-0.135l0.06-0.078c0.022-0.046,0.053-0.08,0.094-0.104L147,36.618l0.085-0.104l0.197-0.136
	c0.132-0.085,0.206-0.129,0.227-0.129l0.05,0.021l0.084-0.102l0.057-0.014l0.594-0.231c0.034-0.017,0.075-0.024,0.123-0.024
	c0.044,0,0.098,0.014,0.16,0.037l0.051-0.019l0.02-0.06l0.09,0.013l0.051,0.01h0.016l0.154-0.041l0.245,0.013l0.118-0.024
	l0.104,0.013l0.097-0.006l0.11,0.037l0.187,0.035l0.135,0.076l0.385,0.141l0.038,0.034l0.073,0.045v0.03l-0.014,0.007
	c-0.017,0.016-0.024,0.032-0.024,0.046c0,0.015,0.022,0.035,0.069,0.063l0.013-0.024c0.048,0,0.084,0.022,0.11,0.069
	c0,0.047,0.004,0.08,0.013,0.097c0.008,0.015,0.028,0.038,0.059,0.067c0.032-0.02,0.062-0.029,0.089-0.029
	c0.055,0,0.1,0.021,0.135,0.066l0.054,0.069l0.112,0.104l0.017,0.072l0.076,0.094l0.018,0.084c-0.032,0.045-0.05,0.082-0.05,0.111
	c0,0.012,0.002,0.021,0.006,0.031l0.192,0.193l0.012,0.069l0.054,0.147c0,0.007-0.005,0.033-0.013,0.078l-0.047,0.025v0.032
	l0.053,0.006l0.013,0.073L151.428,38.02z M150.925,37.489c0-0.095-0.06-0.151-0.179-0.171l-0.02-0.172l-0.153-0.239l-0.026-0.099
	l-0.04-0.006l-0.056-0.068l-0.143-0.168l-0.129-0.084l-0.129-0.104l-0.059-0.019l-0.037-0.068h-0.063
	c-0.06,0-0.104-0.011-0.136-0.035l-0.276-0.154l-0.276-0.039l-0.201-0.035l-0.19,0.005h-0.148l-0.156,0.043l-0.142,0.02
	l-0.142,0.085l-0.076-0.02h-0.006l-0.078,0.025l-0.35,0.19l-0.082,0.013c-0.058,0.084-0.109,0.133-0.154,0.148l-0.084,0.033
	l-0.275,0.271l-0.051,0.038c-0.075,0.057-0.152,0.159-0.231,0.307l-0.032,0.061l-0.064,0.013l-0.032,0.063l-0.038,0.164
	l-0.041,0.043l-0.02,0.063l-0.129-0.018c-0.01,0.035-0.021,0.058-0.032,0.07c-0.013,0.012-0.033,0.023-0.062,0.039l-0.01,0.031
	c0.077,0.049,0.116,0.096,0.116,0.141l-0.007,0.222l0.047,0.321l-0.006,0.078l0.101,0.166c-0.05,0.032-0.075,0.063-0.075,0.092
	c0,0.019,0.01,0.037,0.029,0.056s0.046,0.026,0.074,0.026c0.011-0.002,0.019-0.004,0.025-0.004c0.008-0.002,0.021-0.002,0.037-0.002
	l0.117,0.143c-0.025,0.038-0.038,0.063-0.038,0.072l0.025,0.051h0.024l0.129,0.123l0.166,0.091l0.231,0.192l0.179,0.035l0.098,0.101
	l0.326,0.122l0.271,0.115l0.091-0.006l0.578,0.084l0.091,0.008l0.072-0.008l0.123-0.031l0.313,0.019l0.135-0.026l0.238-0.095
	l0.088-0.024l0.047,0.037c0.064-0.019,0.102-0.039,0.106-0.06l0.029-0.101l0.313-0.271l0.129-0.227l0.049-0.091h0.041l0.039-0.082
	l-0.02-0.035l0.02-0.057l0.013-0.258l0.05-0.124l0.016-0.091l0.045-0.031l0.031-0.191c-0.043-0.075-0.063-0.133-0.063-0.176v-0.006
	l0.013-0.302l-0.006-0.097C150.893,37.574,150.925,37.532,150.925,37.489z"/>
</svg>
