<?xml version="1.0" encoding="utf-8"?>
<!-- Generator: Adobe Illustrator 16.0.0, SVG Export Plug-In . SVG Version: 6.00 Build 0)  -->
<!DOCTYPE svg PUBLIC "-//W3C//DTD SVG 1.0//EN" "http://www.w3.org/TR/2001/REC-SVG-20010904/DTD/svg10.dtd">
<svg version="1.0" id="Layer_1" xmlns="http://www.w3.org/2000/svg" xmlns:xlink="http://www.w3.org/1999/xlink" x="0px" y="0px"
	 width="30px" height="30px" viewBox="0 0 30 30" enable-background="new 0 0 30 30" xml:space="preserve">
<path fill="#5A6B45" d="M26.596,4.003c-7.827,0.465-9.697,7.654-9.697,11.056c0,3.674,1.789,6.738,3.704,8.522
	c2.52,2.346,5.271,2.84,5.271,2.84c-0.46-6.656-6.372-8.025-6.372-8.025c4.828,0.75,7.006,3.882,7.7,6.526
	c0.592,2.259,0.146,4.041,0.146,4.041c-10.455-2.991-11.305-11.065-11.495-13.901c-0.273-4.077,1.106-7.969,2.828-9.957
	c4.233-4.886,10.725-4.008,10.725-4.008c0.368,3.1-0.408,5.962-1.459,8.053c-3.138,6.247-9.591,7.308-9.591,7.308
	C27.734,12.876,26.596,4.003,26.596,4.003z M24.608,5.813c-6.191,2.639-6.144,9.545-6.144,9.545
	C19.934,9.183,24.608,5.813,24.608,5.813z M23.782,24.324c-0.785-4.304-5.171-5.265-5.171-5.265
	C22.316,20.876,23.782,24.324,23.782,24.324z M3.404,4.003C11.23,4.468,13.1,11.658,13.1,15.059c0,3.674-1.788,6.738-3.704,8.522
	c-2.52,2.346-5.271,2.84-5.271,2.84c0.461-6.656,6.371-8.025,6.371-8.025c-4.828,0.75-7.006,3.882-7.7,6.526
	c-0.592,2.259-0.147,4.041-0.147,4.041c10.455-2.991,11.305-11.065,11.496-13.901c0.273-4.077-1.107-7.969-2.829-9.957
	C7.084,0.22,0.593,1.098,0.593,1.098C0.226,4.198,1.001,7.06,2.05,9.151c3.139,6.247,9.593,7.308,9.593,7.308
	C2.265,12.876,3.404,4.003,3.404,4.003z M11.535,15.357c0,0,0.047-6.906-6.143-9.545C5.392,5.813,10.065,9.183,11.535,15.357z
	 M11.388,19.06c0,0-4.387,0.96-5.171,5.265C6.217,24.324,7.684,20.876,11.388,19.06z"/>
</svg>
